<svg version="1.1" id="Layer_1" xmlns="http://www.w3.org/2000/svg" xmlns:xlink="http://www.w3.org/1999/xlink" x="0px" y="0px"
	 width="100%" viewBox="0 0 288 288" enable-background="new 0 0 288 288" xml:space="preserve">
<path fill="#000000" opacity="1.000000" stroke="none" 
	d="
M152.911240,242.205841 
	C147.396667,241.590240 146.126999,238.027390 146.119736,233.648499 
	C146.076080,207.349274 146.014832,181.049789 146.111145,154.750961 
	C146.126358,150.591995 145.231750,147.948486 141.137146,145.635971 
	C126.149696,137.171509 126.258797,115.374489 141.317719,107.081955 
	C145.273895,104.903404 146.428085,102.468292 146.125687,98.427551 
	C145.953247,96.123444 146.143387,93.763412 146.428802,91.460609 
	C146.851852,88.047310 148.911560,85.931427 152.356644,85.815704 
	C156.066742,85.691086 158.367264,87.960350 158.891006,91.445862 
	C159.356781,94.545662 159.229065,97.755890 159.140762,100.911148 
	C159.066727,103.557571 160.051743,105.120529 162.476685,106.376785 
	C170.472183,110.518906 175.136230,116.967293 175.238831,126.251976 
	C175.341537,135.546951 170.771912,142.162720 162.854645,146.325821 
	C159.483307,148.098557 159.132370,150.460266 159.137619,153.609131 
	C159.181412,179.919205 159.143295,206.229401 159.170090,232.539520 
	C159.174637,236.997910 158.522415,240.941727 152.911240,242.205841 
M151.044022,116.670364 
	C150.114182,117.020370 149.115860,117.251450 148.266190,117.740685 
	C144.297989,120.025589 142.121338,123.399376 143.122665,128.034973 
	C144.075165,132.444504 146.684464,135.475616 151.532745,135.889038 
	C156.475189,136.310471 159.804825,134.056503 161.671387,129.575363 
	C164.249802,123.385300 159.939560,117.732216 151.044022,116.670364 
z"/>
<path fill="#000000" opacity="1.000000" stroke="none" 
	d="
M215.395966,128.000000 
	C215.403183,143.649551 215.530548,158.800674 215.332886,173.947556 
	C215.282684,177.794159 216.498642,179.896729 219.959213,181.717407 
	C227.816986,185.851547 232.083710,192.802902 231.879074,201.628342 
	C231.677673,210.314407 227.768082,217.405029 219.585022,221.300461 
	C216.390244,222.821289 215.089447,224.891647 215.377594,228.323975 
	C215.571960,230.639297 215.451752,232.982529 215.442184,235.313141 
	C215.425995,239.255081 213.369186,241.826141 209.558762,242.076843 
	C205.588455,242.338074 203.504227,239.595230 203.074402,235.882477 
	C202.750717,233.086349 202.807251,230.226562 202.924377,227.404633 
	C203.040237,224.613541 202.209991,222.738556 199.484055,221.491730 
	C190.851151,217.543121 186.428268,209.994080 186.457413,201.194229 
	C186.485870,192.594421 190.849762,185.130905 199.322327,181.305954 
	C202.568192,179.840607 202.928955,177.484207 202.922516,174.459732 
	C202.868286,148.987961 202.890564,123.516045 202.901031,98.044174 
	C202.901840,96.047783 202.819763,94.030167 203.069611,92.059616 
	C203.539429,88.354080 205.408035,85.586136 209.473419,85.826317 
	C213.372284,86.056671 215.340134,88.596352 215.347046,92.539268 
	C215.365158,102.861023 215.377411,113.182800 215.391785,123.504562 
	C215.393646,124.836372 215.394272,126.168182 215.395966,128.000000 
M218.740646,199.077087 
	C216.540543,193.857147 212.541260,190.986145 208.338348,191.609482 
	C203.550934,192.319534 200.443939,195.522034 200.056122,200.146255 
	C199.599945,205.585724 201.947601,209.314911 206.825027,210.898422 
	C213.191544,212.965378 218.732376,207.880127 218.740646,199.077087 
z"/>
<path fill="#000000" opacity="1.000000" stroke="none" 
	d="
M89.666901,105.004745 
	C89.666634,101.175056 89.641571,97.843880 89.673325,94.513252 
	C89.729362,88.634995 91.995316,85.569061 96.109756,85.740219 
	C100.255226,85.912666 102.271103,88.874359 102.270370,94.836189 
	C102.267632,117.319908 102.255432,139.803635 102.253693,162.287354 
	C102.253349,166.783966 102.383072,171.283249 102.261864,175.776169 
	C102.189636,178.453476 103.195076,180.007614 105.652626,181.193420 
	C114.094566,185.266830 118.851219,192.469467 118.682777,201.495575 
	C118.516365,210.412796 113.897659,217.713898 105.412674,221.738297 
	C103.093285,222.838348 102.221443,224.343445 102.290001,226.789078 
	C102.373940,229.783127 102.347397,232.787292 102.202080,235.779007 
	C102.008324,239.768005 99.576294,242.060577 95.819138,242.065536 
	C91.926613,242.070679 89.878189,239.494202 89.718941,235.570389 
	C89.671692,234.406113 89.559761,233.224991 89.691788,232.076218 
	C90.332214,226.503799 88.667145,223.061111 83.286194,219.792847 
	C69.109619,211.182343 70.383965,189.648926 85.118340,181.787628 
	C88.588448,179.936203 89.737617,177.753311 89.714821,173.953583 
	C89.577904,151.137619 89.659378,128.320343 89.666901,105.004745 
M102.149132,208.728241 
	C105.767288,204.419922 106.457405,199.939758 103.833290,196.099136 
	C101.491531,192.671768 98.183701,191.065887 93.984596,191.955872 
	C90.069580,192.785660 87.393806,195.172211 86.503769,199.074921 
	C85.584534,203.105698 86.654907,206.667343 90.121735,209.212906 
	C93.931160,212.010025 97.778336,212.000839 102.149132,208.728241 
z"/>
</svg>