<svg version="1.1" id="Layer_1" xmlns="http://www.w3.org/2000/svg" xmlns:xlink="http://www.w3.org/1999/xlink" x="0px" y="0px"
	 width="100%" viewBox="0 0 1024 1024" enable-background="new 0 0 1024 1024" xml:space="preserve">
<path fill="#000000" opacity="1.000000" stroke="none" 
	d="
M271.046082,491.664490 
	C269.682129,431.740692 310.483398,381.663818 368.642303,372.060638 
	C375.163940,370.983765 377.283142,368.264008 378.975800,362.435303 
	C394.376831,309.401825 428.250671,273.666443 481.999512,260.439178 
	C531.615601,248.228928 575.182068,262.652527 611.078857,299.048950 
	C629.495483,317.722046 641.723572,340.034454 647.283203,365.746307 
	C648.280090,370.356537 651.187134,370.961151 654.716980,371.456940 
	C675.856750,374.426270 694.780823,382.712006 711.147461,396.255005 
	C742.801331,422.447845 757.073608,456.467316 754.124756,497.287689 
	C750.668823,545.127625 711.031433,588.429932 663.768860,597.421143 
	C653.502319,599.374207 643.250122,599.313049 632.938293,599.330688 
	C619.275391,599.354065 605.611755,599.424377 591.949707,599.318604 
	C580.403198,599.229248 572.806030,591.757629 572.738770,580.204407 
	C572.606873,557.544678 572.699829,534.883545 572.694702,512.223022 
	C572.694275,510.210938 572.865051,508.237701 573.593750,506.331909 
	C575.616882,501.041046 580.623474,499.937866 584.667236,503.910309 
	C591.304993,510.430969 596.894653,511.418213 603.017639,507.151489 
	C609.785645,502.435211 612.207764,493.350159 608.670776,485.912750 
	C606.627136,481.615295 603.304443,478.268982 600.054016,474.963165 
	C576.576355,451.085449 553.066956,427.238220 529.432190,403.516205 
	C518.737305,392.781830 506.105682,392.839264 495.080933,403.901062 
	C476.736786,422.306824 458.688721,441.007874 440.533691,459.601868 
	C434.133606,466.156677 427.692444,472.675385 421.440643,479.369873 
	C415.604645,485.618988 413.605133,492.730133 417.289124,500.932587 
	C421.530640,510.376434 432.595947,512.557373 439.323242,505.077972 
	C441.441956,502.722351 443.338654,500.522675 446.890625,501.907593 
	C450.422913,503.284821 451.834229,506.174591 452.300598,509.664673 
	C453.209167,516.463562 453.120758,523.315063 452.815948,530.127441 
	C452.055817,547.116760 452.551453,564.109985 452.344666,581.099609 
	C452.212616,591.949829 446.113525,599.001343 435.271790,599.184082 
	C414.950897,599.526855 394.518372,600.524902 374.315186,598.931580 
	C341.038452,596.307251 314.359802,580.405701 294.078796,553.885010 
	C280.131683,535.646851 272.462158,515.054688 271.046082,491.664490 
z"/>
<path fill="#000000" opacity="1.000000" stroke="none" 
	d="
M550.071533,549.000000 
	C550.060913,571.311218 550.078064,593.122620 550.005798,614.933594 
	C549.996460,617.743408 549.845032,620.628357 549.197388,623.344482 
	C547.884583,628.849670 542.717896,632.705444 537.117065,632.805420 
	C531.865845,632.899109 527.489990,629.588562 525.557617,624.155212 
	C524.756775,621.903503 524.709595,619.593506 524.709473,617.258179 
	C524.707581,569.972351 524.694397,522.686584 524.715881,475.400787 
	C524.717163,472.579224 524.693909,469.703644 525.197388,466.947327 
	C526.328613,460.754364 530.985840,456.921783 537.009277,456.818176 
	C542.882141,456.717163 547.795593,460.614136 549.193359,466.661346 
	C549.905334,469.741669 550.153748,472.884155 550.144958,476.072601 
	C550.078613,500.214935 550.086792,524.357483 550.071533,549.000000 
z"/>
<path fill="#000000" opacity="1.000000" stroke="none" 
	d="
M501.106018,504.000000 
	C501.127014,541.133789 501.149323,577.767517 501.160065,614.401306 
	C501.160828,617.059509 501.211365,619.708069 500.503479,622.334412 
	C498.830353,628.541931 493.826355,632.996521 488.247406,633.079712 
	C482.966858,633.158508 478.029877,628.949890 476.301178,622.713501 
	C475.863922,621.136047 475.695312,619.436401 475.694031,617.792725 
	C475.656586,568.836548 475.639954,519.880371 475.671570,470.924225 
	C475.675079,465.471161 477.274750,460.595184 482.639435,458.112854 
	C490.426697,454.509460 498.420563,458.637817 500.281860,467.102936 
	C501.947388,474.677826 500.836304,482.374359 501.067963,490.012604 
	C501.204163,494.504639 501.100311,499.003967 501.106018,504.000000 
z"/>
<path fill="#000000" opacity="1.000000" stroke="none" 
	d="
M423.077576,757.778076 
	C421.173462,754.835083 420.671967,751.956848 420.683319,748.881470 
	C420.752289,730.233459 420.720367,711.585144 420.802124,692.937256 
	C420.835876,685.244263 423.407043,682.666260 430.908844,682.616699 
	C438.567383,682.566162 446.227844,682.532349 453.885284,682.642395 
	C474.799042,682.943115 490.517151,699.361633 491.526611,720.203064 
	C492.529053,740.899780 476.404205,759.410645 454.516785,760.504395 
	C446.857422,760.887146 439.218872,761.044739 431.565369,760.918884 
	C428.551025,760.869263 425.540436,760.584290 423.077576,757.778076 
M439.339661,738.142334 
	C439.322937,740.379028 439.238861,742.575745 442.472015,742.650085 
	C448.302094,742.783997 454.097717,742.765381 459.675995,740.710693 
	C472.528625,735.976440 477.069366,719.610657 468.403625,709.024048 
	C463.317566,702.810608 456.623993,700.217529 448.651489,700.326660 
	C439.453369,700.452515 439.424866,700.340149 439.381592,709.318909 
	C439.336792,718.618591 439.351532,727.918518 439.339661,738.142334 
z"/>
<path fill="#000000" opacity="1.000000" stroke="none" 
	d="
M540.291443,742.714233 
	C537.416870,739.165344 534.239197,737.589661 529.738953,739.384338 
	C528.700867,743.440002 529.451172,747.758667 529.222473,752.013245 
	C528.907104,757.880615 525.817139,761.139526 520.303467,761.262207 
	C514.646973,761.388062 510.757690,757.932434 510.725739,752.094421 
	C510.613800,731.624756 510.626770,711.153625 510.753265,690.684021 
	C510.786896,685.238647 513.467957,682.745239 518.808716,682.696411 
	C527.794861,682.614136 536.785889,682.522461 545.768494,682.721924 
	C557.268250,682.977173 568.081299,691.415771 571.865295,702.746887 
	C575.484802,713.585388 572.648438,723.880371 564.095093,730.554260 
	C562.286194,731.965759 560.242493,733.076294 558.032227,734.502930 
	C560.375244,739.053528 564.296509,742.187256 567.603943,745.807373 
	C572.988342,751.700684 573.597717,754.911682 569.900391,758.627319 
	C566.040466,762.506348 559.402527,762.251648 554.741272,757.697632 
	C549.864502,752.933044 545.262390,747.887329 540.291443,742.714233 
M549.643372,719.480896 
	C555.927612,714.085938 555.706177,706.946350 548.959778,703.264404 
	C543.247253,700.146729 536.562256,700.038574 531.081360,702.090454 
	C527.071228,703.591797 530.015564,709.611511 529.387146,713.558472 
	C529.155396,715.014160 529.349365,716.542542 529.394836,718.036377 
	C529.448608,719.805237 530.376831,720.936279 532.154846,720.892700 
	C537.760498,720.755249 543.449585,721.820007 549.643372,719.480896 
z"/>
<path fill="#000000" opacity="1.000000" stroke="none" 
	d="
M342.391022,757.830261 
	C327.239746,750.101196 319.103668,738.372620 319.428131,721.387756 
	C319.775391,703.209167 328.746307,690.886230 345.387604,684.228760 
	C366.933777,675.609070 391.252838,689.827881 396.247223,713.708313 
	C399.292908,728.271057 395.602539,740.912109 384.470276,750.768372 
	C372.209229,761.624023 358.168732,764.380127 342.391022,757.830261 
M376.824799,730.152344 
	C380.334930,721.204956 378.149628,711.927551 371.071045,705.726685 
	C364.554291,700.017883 354.716888,699.303345 347.428833,704.009338 
	C339.593597,709.068542 336.372406,719.345398 339.518585,729.246460 
	C342.102814,737.379028 350.126099,743.183289 358.529694,742.600037 
	C366.615448,742.038818 372.511841,737.805725 376.824799,730.152344 
z"/>
<path fill="#000000" opacity="1.000000" stroke="none" 
	d="
M238.438293,703.659546 
	C248.262512,685.326355 268.429718,677.481567 287.584991,684.274658 
	C290.969971,685.475159 293.871765,687.272339 295.599884,690.612305 
	C297.115936,693.542358 297.148102,696.443054 295.232971,699.100525 
	C293.208893,701.909058 290.354431,703.086792 286.898285,702.166931 
	C283.362396,701.225952 279.874481,700.250488 276.141937,700.241943 
	C263.820526,700.213806 254.295776,708.183899 253.345139,719.480469 
	C252.419754,730.476929 261.255249,740.864136 273.082764,742.645142 
	C274.892395,742.917603 276.723999,743.043030 278.544830,743.242188 
	C285.815887,744.037415 285.793274,743.883606 285.990509,736.799072 
	C286.108459,732.562378 284.852966,730.824036 280.328094,730.945374 
	C274.303345,731.106812 270.083618,726.829773 270.246033,721.586304 
	C270.381805,717.202332 273.630432,713.864075 278.330231,713.737000 
	C284.487305,713.570557 290.655853,713.562134 296.812531,713.734192 
	C301.522278,713.865845 304.172943,716.509766 304.248505,721.342407 
	C304.409912,731.664856 304.403229,741.992737 304.265869,752.315735 
	C304.199249,757.322327 301.504730,760.514282 296.273712,760.848511 
	C285.161530,761.558594 273.968658,762.303040 263.065338,758.990295 
	C239.559204,751.848267 228.350861,726.949829 238.438293,703.659546 
z"/>
<path fill="#000000" opacity="1.000000" stroke="none" 
	d="
M763.168457,717.200195 
	C765.683167,725.186646 762.304016,730.019653 754.409302,730.243347 
	C750.747681,730.347046 747.076904,730.372253 743.417542,730.237122 
	C740.463684,730.128174 739.332275,731.252319 739.218140,734.290283 
	C738.902466,742.692871 738.794312,742.701721 747.045288,742.694885 
	C754.041199,742.689026 761.037781,742.624329 768.032715,742.703796 
	C774.005798,742.771667 777.464478,745.820618 777.833923,751.111511 
	C778.149109,755.625610 774.665222,759.931030 769.295166,760.427979 
	C755.851807,761.671814 742.345703,761.440918 728.886597,760.737671 
	C723.362549,760.449036 720.720703,756.902039 720.702271,751.274109 
	C720.637329,731.452576 720.626770,711.630554 720.716919,691.809204 
	C720.743774,685.921082 723.880859,682.769409 729.560791,682.619324 
	C739.880432,682.346375 750.202759,682.172546 760.524475,681.986450 
	C763.867004,681.926147 767.206604,682.125305 770.372559,683.294983 
	C775.070679,685.030701 777.323425,689.151123 776.202209,694.072205 
	C775.148987,698.695068 771.978149,700.524719 767.391968,700.472656 
	C759.897461,700.387695 752.387756,700.685303 744.911438,700.299011 
	C739.919861,700.041077 739.185120,702.336426 739.155151,706.568848 
	C739.123962,710.980469 739.888733,713.647522 745.111877,713.105652 
	C748.240112,712.781128 751.439148,712.984497 754.596924,713.140930 
	C757.819031,713.300476 760.897827,713.988708 763.168457,717.200195 
z"/>
<path fill="#000000" opacity="1.000000" stroke="none" 
	d="
M697.590820,704.529846 
	C690.300110,721.005676 683.162842,737.133606 676.017334,753.257812 
	C675.613159,754.169739 675.146545,755.054260 674.698486,755.946289 
	C672.885620,759.555664 670.061829,761.370667 665.917725,761.366516 
	C661.878906,761.362488 659.964539,758.886108 658.546387,755.686462 
	C652.276550,741.541077 646.032227,727.384460 639.779846,713.231384 
	C636.890564,706.691162 633.727478,700.254089 631.205322,693.575073 
	C629.252869,688.404846 631.013977,684.549011 635.240173,682.677979 
	C639.800598,680.658875 644.835449,682.032166 647.530396,686.195862 
	C648.608032,687.860657 649.460083,689.695923 650.231201,691.530823 
	C654.742493,702.265015 659.188416,713.026733 663.685181,723.767151 
	C664.451111,725.596436 665.356567,727.367371 666.578979,729.980530 
	C670.456543,721.230347 674.036560,713.125610 677.639038,705.030762 
	C680.209167,699.255493 682.621338,693.399475 685.449158,687.752319 
	C688.258301,682.142273 692.879028,680.492859 697.777771,682.852539 
	C702.527344,685.140442 703.963013,689.362610 701.748169,695.042847 
	C700.540894,698.138855 699.085815,701.138184 697.590820,704.529846 
z"/>
<path fill="#000000" opacity="1.000000" stroke="none" 
	d="
M595.053101,755.164917 
	C594.832520,733.286621 594.686829,711.817749 594.727600,690.349243 
	C594.737366,685.194336 597.869812,682.114929 602.631653,681.745972 
	C607.376953,681.378296 611.528687,684.304871 612.590332,688.965271 
	C612.992188,690.729492 613.128052,692.589050 613.126892,694.404968 
	C613.114746,712.549438 613.055176,730.693848 612.990967,748.838318 
	C612.980957,751.672852 612.950195,754.562073 611.408752,757.063660 
	C608.179626,762.303894 599.111694,763.564697 595.053101,755.164917 
z"/>
</svg>