<svg version="1.1" id="Layer_1" xmlns="http://www.w3.org/2000/svg" xmlns:xlink="http://www.w3.org/1999/xlink" x="0px" y="0px"
	 width="100%" viewBox="0 0 672 672" enable-background="new 0 0 672 672" xml:space="preserve">
<path fill="#000000" opacity="1.000000" stroke="none" 
	d="
M460.999939,431.304779 
	C448.669067,431.304626 436.837585,431.382416 425.007599,431.281708 
	C412.604340,431.176147 404.971863,423.727661 404.890259,411.332275 
	C404.742157,388.838013 404.850311,366.342163 404.829926,343.846954 
	C404.827942,341.642334 405.172180,339.528107 406.094116,337.531219 
	C408.451782,332.424652 413.444183,331.624664 417.397522,335.700073 
	C423.402405,341.890381 428.397552,342.980438 434.445709,339.420380 
	C440.736206,335.717621 444.033112,327.247498 441.870453,320.388885 
	C440.745667,316.821655 438.788574,313.776489 436.238953,311.063446 
	C411.703094,284.954590 386.358765,259.638580 360.792419,234.550049 
	C351.100189,225.038956 339.405212,224.797974 329.568298,234.236679 
	C315.270660,247.955566 301.556305,262.284149 287.653534,276.412170 
	C276.904144,287.335693 266.223114,298.326782 255.559341,309.334015 
	C249.940796,315.133575 246.402435,321.664673 249.031219,330.078827 
	C252.711105,341.857300 264.050232,344.587036 272.484558,335.741699 
	C276.235260,331.808228 280.706909,332.335358 283.552277,337.031921 
	C284.800995,339.093018 285.261963,341.332245 285.259033,343.717987 
	C285.230225,367.212891 285.302948,390.708374 285.154541,414.202454 
	C285.096710,423.354462 279.077332,430.619965 269.204529,430.831482 
	C245.263794,431.344238 221.144424,433.510010 197.385590,429.571716 
	C166.681076,424.482025 142.408188,408.321442 124.405823,382.993347 
	C89.320763,333.631012 98.882492,266.839020 146.272430,228.293808 
	C162.724304,214.912476 181.596375,207.060013 202.254715,203.400650 
	C207.335785,202.500610 209.583725,200.358582 210.846634,195.479538 
	C220.320602,158.878342 240.837906,129.862091 272.710022,109.628319 
	C300.140289,92.214417 330.180939,85.113297 362.914185,89.301277 
	C419.606537,96.554619 466.923126,141.462402 479.790436,196.328339 
	C480.853363,200.860764 482.828125,202.372864 487.352081,203.055756 
	C534.680847,210.200119 575.352722,246.372940 585.084900,296.270203 
	C591.398193,328.638824 584.417603,358.124451 565.014099,384.663025 
	C542.270203,415.770447 511.465546,431.136902 472.994873,431.287994 
	C469.163269,431.303040 465.331573,431.299286 460.999939,431.304779 
z"/>
<path fill="#000000" opacity="1.000000" stroke="none" 
	d="
M333.526611,302.704834 
	C333.711456,323.759796 333.892212,344.382690 333.945099,365.005920 
	C334.013031,391.472229 333.973999,417.938843 333.992432,444.405304 
	C333.994965,448.075897 333.966583,451.750732 332.858429,455.286713 
	C331.111450,460.860962 326.030670,464.899475 320.795654,465.004761 
	C315.832611,465.104584 310.934631,461.321655 308.920654,455.811615 
	C308.054138,453.440918 307.756866,450.992706 307.757568,448.462585 
	C307.770844,400.356720 307.745819,352.250824 307.756683,304.144958 
	C307.757965,298.430084 308.830627,293.024170 314.426605,290.053467 
	C323.423798,285.277222 332.233582,291.007935 333.526611,302.704834 
z"/>
<path fill="#000000" opacity="1.000000" stroke="none" 
	d="
M382.484680,327.993652 
	C382.441193,369.174194 382.431824,409.979919 382.342621,450.785492 
	C382.324707,458.979614 377.143402,464.494019 369.692108,464.649475 
	C362.689178,464.795593 357.414948,459.415619 356.926331,451.385071 
	C356.704071,447.732513 356.839478,444.057220 356.839630,440.392242 
	C356.841644,396.742889 356.841858,353.093567 356.868866,309.444214 
	C356.870819,306.284027 356.813171,303.087616 357.241486,299.971039 
	C358.267242,292.507416 363.107849,288.268219 369.915955,288.517120 
	C376.598114,288.761475 381.773956,293.474152 382.148010,300.645294 
	C382.615997,309.618011 382.407257,318.626007 382.484680,327.993652 
z"/>
<path fill="#000000" opacity="1.000000" stroke="none" 
	d="
M321.187592,568.937256 
	C313.580170,584.902405 300.919067,592.069458 283.895752,592.463196 
	C277.075287,592.620850 270.261505,593.303711 263.435852,592.810852 
	C256.325348,592.297363 252.947113,589.114197 252.904480,582.119873 
	C252.785767,562.635315 252.837357,543.148254 253.024124,523.664124 
	C253.087738,517.028198 256.309967,514.095947 263.104370,513.964844 
	C270.096680,513.829956 277.093994,513.867004 284.088196,513.930115 
	C313.251160,514.193420 331.741333,541.348145 321.187592,568.937256 
M304.835205,552.618530 
	C304.905670,545.274719 301.337097,540.032776 295.453400,536.007263 
	C289.858643,532.179443 283.577057,532.287231 277.207672,532.265259 
	C273.582733,532.252625 272.097473,533.545288 272.155029,537.218628 
	C272.285492,545.541870 272.025421,553.872131 272.201874,562.193604 
	C272.472656,574.962524 268.971375,574.621460 285.153656,573.784790 
	C297.246735,573.159546 304.425507,565.329529 304.835205,552.618530 
z"/>
<path fill="#000000" opacity="1.000000" stroke="none" 
	d="
M342.778442,558.000000 
	C342.798096,546.351013 342.760529,535.201477 342.857849,524.053162 
	C342.920380,516.890503 345.350403,514.267822 352.379272,514.105469 
	C360.694672,513.913330 369.031982,513.730652 377.334442,514.105469 
	C397.121399,514.998657 410.975952,534.882324 404.277313,552.373108 
	C401.813385,558.806702 397.060852,562.968140 391.063477,565.828003 
	C391.023682,568.328308 392.783508,569.552673 394.056519,570.987793 
	C396.484497,573.724915 399.132294,576.268311 401.535370,579.025940 
	C404.357330,582.264404 407.011841,585.571533 402.964691,589.855042 
	C399.387756,593.640869 393.657654,594.494812 389.354401,591.499329 
	C385.774109,589.007080 383.131073,585.515930 380.133240,582.405029 
	C376.786957,578.932556 373.464325,575.434509 370.027405,572.053223 
	C368.213165,570.268372 365.827301,569.832336 363.542450,570.812561 
	C361.401062,571.731079 362.202484,573.988159 362.091156,575.712524 
	C361.941315,578.033447 362.066406,580.370605 362.001801,582.698730 
	C361.818542,589.300781 358.288025,593.219543 352.575409,593.214417 
	C346.442749,593.208923 342.917206,589.425659 342.825195,582.461914 
	C342.719727,574.475769 342.786469,566.487427 342.778442,558.000000 
M385.345215,547.697571 
	C387.687927,541.358337 385.599396,536.521790 379.347137,534.230103 
	C374.515228,532.458984 369.467194,533.325928 364.506897,533.447998 
	C362.585449,533.495239 362.255615,535.157654 362.246307,536.746887 
	C362.221863,540.909424 362.215302,545.072266 362.244995,549.234741 
	C362.254578,550.576477 362.381073,551.840637 363.910065,552.541931 
	C368.442383,554.620789 381.318085,552.080933 385.345215,547.697571 
z"/>
<path fill="#000000" opacity="1.000000" stroke="none" 
	d="
M199.684631,592.118225 
	C181.328156,597.200928 156.539978,585.304016 152.071060,561.397034 
	C147.954117,539.372925 162.165863,518.228333 183.521637,514.266541 
	C203.857300,510.494019 222.247116,522.389526 228.358231,543.269348 
	C234.091385,562.857727 224.139572,582.435425 204.320007,590.525391 
	C202.936722,591.090027 201.502686,591.530334 199.684631,592.118225 
M176.384201,538.907288 
	C175.516907,540.124634 174.534500,541.276550 173.800171,542.569397 
	C166.580795,555.279480 173.953674,572.401306 187.247787,573.867432 
	C197.538483,575.002319 206.347595,569.552307 209.988785,559.798096 
	C212.785248,552.306763 209.035416,541.279785 201.993881,536.287781 
	C194.211411,530.770508 185.333939,531.514038 176.384201,538.907288 
z"/>
<path fill="#000000" opacity="1.000000" stroke="none" 
	d="
M94.526382,515.235962 
	C103.699013,512.821838 112.362900,513.204895 120.930626,516.212952 
	C124.784218,517.565918 127.620430,520.002319 128.893372,523.894775 
	C130.823456,529.796814 125.573212,535.396179 119.337135,534.012573 
	C115.602997,533.184021 111.958344,532.166016 108.063263,532.192749 
	C97.214134,532.267334 88.121887,539.264832 86.350311,549.096497 
	C84.515366,559.279846 90.088020,568.716309 100.416481,572.792603 
	C103.845642,574.145935 107.417191,574.849548 111.134750,574.879761 
	C117.414474,574.930847 120.236397,570.689941 117.738640,564.949951 
	C116.762772,562.707397 114.835358,563.085449 113.066872,563.001831 
	C109.598495,562.837830 106.476379,561.954529 104.372360,558.936462 
	C100.418701,553.265076 103.217957,546.040771 110.066711,545.403442 
	C116.665726,544.789307 123.374695,544.888000 130.005249,545.240356 
	C134.731216,545.491455 137.024628,548.954773 137.101852,553.437744 
	C137.276688,563.589294 137.302780,573.748352 137.113419,583.899170 
	C137.018799,588.970703 133.968216,592.454407 128.718781,592.784546 
	C117.280151,593.504150 105.761894,594.273682 94.581657,590.578064 
	C78.562469,585.282959 66.877861,569.680542 66.773491,553.475342 
	C66.656883,535.370850 76.604675,521.520996 94.526382,515.235962 
z"/>
<path fill="#000000" opacity="1.000000" stroke="none" 
	d="
M604.332703,591.791626 
	C590.033997,594.005249 576.025818,593.088501 562.062500,592.808594 
	C555.927551,592.685669 552.865295,588.816223 552.832092,582.531494 
	C552.729065,563.034668 552.719116,543.536560 552.830200,524.039856 
	C552.866943,517.588867 556.361633,514.065186 562.749084,513.969238 
	C574.244934,513.796509 585.744751,513.873047 597.242859,513.868103 
	C599.774719,513.867004 602.257568,514.266968 604.441956,515.622925 
	C608.227478,517.972717 610.101257,521.396912 608.941162,525.793091 
	C607.790100,530.155029 604.694580,532.369690 600.073364,532.349182 
	C592.407898,532.315186 584.729065,532.614685 577.081116,532.247192 
	C571.855225,531.996094 572.092041,535.043396 572.013123,538.593445 
	C571.931030,542.284424 572.002747,545.306274 577.089294,544.937683 
	C580.898438,544.661682 584.764526,544.745850 588.576721,545.039673 
	C593.834839,545.444824 597.065247,548.680176 597.115723,553.114685 
	C597.164062,557.361206 593.828613,561.380615 589.093384,561.909973 
	C584.809631,562.388855 580.445740,562.167786 576.116699,562.219177 
	C570.001404,562.291687 572.599548,566.972107 572.064880,569.936340 
	C571.469910,573.234863 572.997437,574.259827 576.276367,574.167419 
	C584.102783,573.946838 591.939026,574.085266 599.771240,574.059143 
	C604.528748,574.043274 608.492615,575.607056 609.922302,580.464111 
	C611.395813,585.470459 609.270630,589.221924 604.332703,591.791626 
z"/>
<path fill="#000000" opacity="1.000000" stroke="none" 
	d="
M469.276917,538.613892 
	C467.294281,534.165710 465.296875,530.128540 463.688324,525.942017 
	C461.586334,520.471130 462.968231,516.464417 467.276001,514.464600 
	C472.236694,512.161804 478.160797,513.803223 480.545074,518.795166 
	C484.558014,527.197205 488.058472,535.842773 491.859558,544.347839 
	C494.153809,549.481262 495.576019,555.015198 498.668365,559.758118 
	C500.703613,559.627869 500.601044,557.978088 501.087616,556.867920 
	C506.030243,545.590271 510.885345,534.274048 515.877014,523.018250 
	C519.681946,514.438538 524.150757,511.840118 530.121582,514.478455 
	C535.945496,517.051880 536.810486,521.685364 532.990112,530.319092 
	C525.381775,547.513123 517.747559,564.695740 510.105377,581.874817 
	C509.226685,583.850098 508.279938,585.799255 507.275726,587.713867 
	C505.443665,591.206604 502.768188,593.365051 498.574188,593.304565 
	C494.458496,593.245239 492.179932,590.774902 490.681702,587.414185 
	C485.736298,576.321045 480.882904,565.186829 476.005951,554.063232 
	C473.801270,549.034607 471.624481,543.993835 469.276917,538.613892 
z"/>
<path fill="#000000" opacity="1.000000" stroke="none" 
	d="
M445.307556,583.626343 
	C444.197021,590.207153 440.605438,593.529175 435.475555,593.164673 
	C430.455750,592.807983 426.796631,588.614868 426.778748,582.853760 
	C426.717896,563.222778 426.706757,543.591370 426.758301,523.960388 
	C426.775848,517.270508 429.990448,513.417236 435.446747,513.372314 
	C440.475769,513.330872 445.435883,516.951294 445.657928,523.315247 
	C445.977661,532.478394 445.084534,541.584229 445.318695,550.731262 
	C445.595306,561.537354 445.342773,572.356934 445.307556,583.626343 
z"/>
</svg>